<svg width="308" height="90" viewBox="0 0 308 90" fill="none" xmlns="http://www.w3.org/2000/svg">
<mask id="mask0_610_45" style="mask-type:luminance" maskUnits="userSpaceOnUse" x="49" y="0" width="30" height="88">
<path d="M49.2605 0.275879H79.0001V87.2759H49.2605V0.275879Z" fill="white"/>
</mask>
<g mask="url(#mask0_610_45)">
<path d="M64.9167 0.359375H78.8699L63.2136 86.9635H49.2605L64.9167 0.359375Z" fill="#2A6AE6"/>
</g>
<mask id="mask1_610_45" style="mask-type:luminance" maskUnits="userSpaceOnUse" x="0" y="0" width="44" height="88">
<path d="M0.473877 0.275879H43.4739V87.2759H0.473877V0.275879Z" fill="white"/>
</mask>
<g mask="url(#mask1_610_45)">
<path d="M43.4739 74.104C26.6926 74.104 13.0676 60.4738 13.0676 43.6978C13.0676 26.9165 26.6926 13.2915 43.4739 13.2915V0.322754C19.5155 0.322754 0.098877 19.7394 0.098877 43.6978C0.098877 67.6561 19.5155 86.9998 43.4739 86.9998V74.104Z" fill="#2A6AE6"/>
</g>
<mask id="mask2_610_45" style="mask-type:luminance" maskUnits="userSpaceOnUse" x="84" y="0" width="44" height="88">
<path d="M84.6511 0.0415039H127.651V87.0415H84.6511V0.0415039Z" fill="white"/>
</mask>
<g mask="url(#mask2_610_45)">
<path d="M84.6511 13.2186C101.427 13.2186 115.057 26.8436 115.057 43.6248C115.057 60.4009 101.427 74.0311 84.6511 74.0311V86.9998C108.609 86.9998 128.026 67.5832 128.026 43.6248C128.026 19.6665 108.609 0.322754 84.6511 0.322754V13.2186Z" fill="#2A6AE6"/>
</g>
<path d="M169.316 74.0623C165.691 74.0623 162.368 73.4634 159.358 72.2707C156.342 71.078 153.858 69.3123 151.9 66.979C149.952 64.6457 148.712 61.7498 148.17 58.2915H157.212C157.847 60.8905 159.17 62.9373 161.17 64.4373C163.181 65.9269 165.9 66.6665 169.316 66.6665C172.025 66.6665 174.233 66.1561 175.941 65.1248C177.65 64.0832 178.504 62.5623 178.504 60.5623C178.504 58.9373 177.946 57.6821 176.837 56.7915C175.722 55.8905 174.285 55.1821 172.525 54.6665C170.775 54.1561 168.863 53.703 166.795 53.3123C164.847 52.9373 162.884 52.4946 160.9 51.979C158.926 51.4686 157.113 50.7655 155.462 49.8748C153.806 48.9738 152.488 47.7498 151.504 46.2082C150.53 44.6665 150.045 42.6769 150.045 40.229C150.045 37.2446 150.816 34.7811 152.358 32.8332C153.91 30.8748 155.972 29.4113 158.545 28.4373C161.113 27.4686 163.946 26.979 167.045 26.979C172.139 26.979 176.4 28.2915 179.816 30.9165C183.233 33.5415 185.342 37.1873 186.15 41.854H177.775C177.077 39.203 175.764 37.2811 173.837 36.0832C171.905 34.8905 169.639 34.2915 167.045 34.2915C164.446 34.2915 162.41 34.7811 160.941 35.7498C159.483 36.7238 158.754 38.0519 158.754 39.729C158.754 41.1457 159.28 42.2655 160.337 43.0832C161.389 43.8905 162.759 44.5155 164.441 44.9582C166.118 45.3905 167.941 45.7915 169.9 46.1665C171.9 46.5415 173.926 46.9894 175.983 47.4998C178.051 48.0155 179.941 48.7498 181.65 49.7082C183.358 50.6561 184.738 51.9269 185.795 53.5207C186.847 55.1196 187.379 57.2238 187.379 59.8332C187.379 64.1144 185.785 67.5571 182.608 70.1665C179.441 72.7655 175.009 74.0623 169.316 74.0623Z" fill="white"/>
<path d="M217.638 26.979C221.648 26.979 225.159 27.979 228.159 29.979C231.169 31.979 233.503 34.7446 235.159 38.2707C236.81 41.8019 237.638 45.8696 237.638 50.479C237.638 55.0936 236.81 59.1769 235.159 62.729C233.503 66.2707 231.169 69.0519 228.159 71.0623C225.159 73.0623 221.648 74.0623 217.638 74.0623C214.815 74.0623 212.315 73.5623 210.138 72.5623C207.971 71.5519 205.857 69.6353 203.805 66.8123V89.9165H194.867V27.854H203.805V34.2082C205.857 31.4998 207.956 29.6196 210.096 28.5623C212.247 27.5103 214.763 26.979 217.638 26.979ZM216.013 34.7707C213.456 34.7707 211.201 35.4373 209.242 36.7707C207.294 38.104 205.768 39.953 204.659 42.3123C203.544 44.6613 202.992 47.3853 202.992 50.479C202.992 53.5623 203.544 56.2863 204.659 58.6457C205.768 61.0103 207.294 62.8696 209.242 64.229C211.201 65.578 213.456 66.2498 216.013 66.2498C218.607 66.2498 220.852 65.578 222.742 64.229C224.643 62.8696 226.107 60.9946 227.138 58.604C228.18 56.2186 228.701 53.5103 228.701 50.479C228.701 47.4373 228.18 44.7446 227.138 42.3957C226.107 40.0363 224.643 38.1769 222.742 36.8123C220.852 35.453 218.607 34.7707 216.013 34.7707Z" fill="white"/>
<path d="M260.98 73.1665H255.605C252.24 73.1665 249.626 72.3957 247.751 70.854C245.886 69.3019 244.959 66.5207 244.959 62.5207V11.104H253.897V60.3123C253.897 62.104 254.178 63.4373 254.751 64.3123C255.319 65.1769 256.553 65.604 258.459 65.604H260.98V73.1665Z" fill="white"/>
<path d="M271.461 21.5208C269.836 21.5208 268.425 20.9792 267.232 19.8958C266.034 18.8125 265.44 17.4583 265.44 15.8333C265.44 14.2083 266.034 12.8542 267.232 11.7708C268.425 10.6771 269.836 10.125 271.461 10.125C273.138 10.125 274.565 10.6771 275.732 11.7708C276.899 12.8542 277.482 14.2083 277.482 15.8333C277.482 17.4583 276.899 18.8125 275.732 19.8958C274.565 20.9792 273.138 21.5208 271.461 21.5208ZM275.94 73.1667H267.003V27.8542H275.94V73.1667Z" fill="white"/>
<path d="M307.016 73.1665H299.37C296.006 73.1665 293.391 72.3957 291.516 70.854C289.641 69.3019 288.704 66.5207 288.704 62.5207V35.354H281.724V27.854H288.704V11.104H297.662V27.854H307.099V35.354H297.662V60.1457C297.662 61.729 297.891 63.0363 298.349 64.0623C298.808 65.0936 300.089 65.604 302.204 65.604H307.016V73.1665Z" fill="white"/>
</svg>
