<svg xmlns="http://www.w3.org/2000/svg" xmlns:xlink="http://www.w3.org/1999/xlink" width="500"
    zoomAndPan="magnify" viewBox="0 0 375 374.999991" height="500"
    preserveAspectRatio="xMidYMid meet" version="1.0">
    <defs>
        <clipPath id="c589ba5005">
            <path
                d="M 163.210938 116.320312 L 211.773438 116.320312 L 211.773438 258.457031 L 163.210938 258.457031 Z M 163.210938 116.320312 "
                clip-rule="nonzero" />
        </clipPath>
        <clipPath id="5f4fd3d799">
            <path
                d="M 82.664062 116.320312 L 153.730469 116.320312 L 153.730469 258.457031 L 82.664062 258.457031 Z M 82.664062 116.320312 "
                clip-rule="nonzero" />
        </clipPath>
        <clipPath id="c4a3ecb18e">
            <path
                d="M 221.265625 116.542969 L 292.332031 116.542969 L 292.332031 258.679688 L 221.265625 258.679688 Z M 221.265625 116.542969 "
                clip-rule="nonzero" />
        </clipPath>
    </defs>
    <g clip-path="url(#c589ba5005)">
        <path fill="#2a6ae6"
            d="M 188.882812 116.476562 L 211.769531 116.476562 L 186.097656 258.519531 L 163.210938 258.519531 Z M 188.882812 116.476562 "
            fill-opacity="1" fill-rule="nonzero" />
    </g>
    <g clip-path="url(#5f4fd3d799)">
        <path fill="#2a6ae6"
            d="M 153.730469 237.457031 C 126.199219 237.457031 103.835938 215.09375 103.835938 187.558594 C 103.835938 160.027344 126.199219 137.660156 153.730469 137.660156 L 153.730469 116.378906 C 114.414062 116.378906 82.554688 148.242188 82.554688 187.558594 C 82.554688 226.875 114.414062 258.617188 153.730469 258.617188 Z M 153.730469 237.457031 "
            fill-opacity="1" fill-rule="nonzero" />
    </g>
    <g clip-path="url(#c4a3ecb18e)">
        <path fill="#2a6ae6"
            d="M 221.265625 137.542969 C 248.800781 137.542969 271.164062 159.90625 271.164062 187.4375 C 271.164062 214.972656 248.800781 237.335938 221.265625 237.335938 L 221.265625 258.617188 C 260.582031 258.617188 292.445312 226.757812 292.445312 187.4375 C 292.445312 148.121094 260.582031 116.378906 221.265625 116.378906 Z M 221.265625 137.542969 "
            fill-opacity="1" fill-rule="nonzero" />
    </g>
</svg>